<svg width="35" height="35" viewBox="0 0 35 35" fill="none" xmlns="http://www.w3.org/2000/svg">
<path d="M20.8917 6C20.5844 6.52677 20.3105 7.0708 20.0716 7.6291C17.7239 7.27374 15.3325 7.27374 12.9849 7.6291C12.7459 7.0708 12.4721 6.52677 12.1648 6C9.95333 6.36166 7.80351 7.00936 5.77435 7.92531C2.14579 12.9375 0.500214 19.0224 1.13239 25.0901C3.49706 26.7916 6.15106 28.0893 8.9773 28.9259C9.62085 28.1123 10.1952 27.2505 10.6948 26.349C9.77274 26.0236 8.88647 25.6119 8.04891 25.1198C8.27863 24.9735 8.49593 24.8101 8.69878 24.631C11.1412 25.7571 13.8173 26.3418 16.5282 26.3418C19.2392 26.3418 21.9153 25.7571 24.3577 24.631C24.5743 24.8088 24.7909 24.9717 25.0075 25.1198C24.1654 25.608 23.28 26.0243 22.3616 26.3638C22.8405 27.2858 23.3995 28.1676 24.0327 29C26.8554 28.1662 29.5048 26.8682 31.8622 25.1642C32.5095 19.0953 30.8626 13.0054 27.2202 7.99936C25.2138 7.06445 23.0853 6.39198 20.8917 6ZM11.3911 21.6246C10.6168 21.5714 9.89415 21.2331 9.37484 20.6809C8.85552 20.1286 8.57994 19.4052 8.60594 18.6626C8.57602 17.919 8.85024 17.1936 9.37034 16.6404C9.89043 16.0873 10.6154 15.7502 11.3911 15.7006C12.1669 15.7502 12.8918 16.0873 13.4119 16.6404C13.932 17.1936 14.2062 17.919 14.1763 18.6626C14.2062 19.4062 13.932 20.1316 13.4119 20.6847C12.8918 21.2379 12.1669 21.575 11.3911 21.6246ZM21.6653 21.6246C20.891 21.5714 20.1684 21.2331 19.649 20.6809C19.1297 20.1286 18.8541 19.4052 18.8801 18.6626C18.8502 17.919 19.1244 17.1936 19.6445 16.6404C20.1646 16.0873 20.8896 15.7502 21.6653 15.7006C22.4425 15.7465 23.1698 16.0825 23.6907 16.6365C24.2116 17.1905 24.4844 17.918 24.4505 18.6626C24.4844 19.4072 24.2116 20.1347 23.6907 20.6887C23.1698 21.2426 22.4425 21.5787 21.6653 21.6246Z" fill="white"/>
</svg>
