<svg width="38" height="38" viewBox="0 0 38 38" fill="none" xmlns="http://www.w3.org/2000/svg">
<path d="M19.3355 1.60431e-06C9.02096 -0.00428269 0.666748 8.57287 0.666748 19.1594C0.666748 27.5309 5.89282 34.6471 13.1709 37.2605C14.1511 37.5133 14.0009 36.7978 14.0009 36.3094V32.9891C8.34111 33.6703 8.11171 29.823 7.73216 29.1803C6.96473 27.8351 5.15041 27.4923 5.69262 26.8497C6.98141 26.1685 8.29523 27.021 9.81759 29.3303C10.9187 31.0054 13.0667 30.7227 14.1553 30.4442C14.393 29.4374 14.9019 28.5377 15.6026 27.8393C9.73834 26.7597 7.29422 23.0838 7.29422 18.7138C7.29422 16.5931 7.97407 14.6437 9.30874 13.0714C8.45789 10.4794 9.38799 8.26012 9.51312 7.93023C11.9364 7.70744 14.4556 9.71249 14.6516 9.87101C16.028 9.48971 17.6004 9.28835 19.3605 9.28835C21.1289 9.28835 22.7055 9.49828 24.0944 9.88386C24.5657 9.51542 26.9014 7.79313 29.1536 8.00306C29.2746 8.33295 30.1838 10.5008 29.383 13.0585C30.7344 14.6351 31.4226 16.6016 31.4226 18.7266C31.4226 23.1052 28.9618 26.7854 23.0809 27.8479C23.5846 28.3567 23.9846 28.9636 24.2574 29.633C24.5302 30.3024 24.6705 31.0209 24.67 31.7466V36.5664C24.7033 36.952 24.67 37.3333 25.2956 37.3333C32.6822 34.7756 38 27.608 38 19.1636C38 8.57287 29.6416 1.60431e-06 19.3355 1.60431e-06V1.60431e-06Z" fill="white"/>
</svg>
